<svg xmlns="http://www.w3.org/2000/svg" width="184.667" height="54.085" viewBox="0 0 184.667 54.085"><text transform="translate(0 41)" fill="#fff" font-size="44" font-family="WorkSans-Bold, Work Sans" font-weight="700"><tspan x="0" y="0">Fly</tspan><tspan y="0" fill="#dcbb87">next</tspan></text><g data-name="Group 2370" transform="translate(67 39)"><path data-name="Path 8698" d="M1584.577,1067.88l-1.039-.843a2.519,2.519,0,0,0-1.728-.558l-4.391.3-3.923-5.637a.737.737,0,0,0-.526-.306l-.985-.119c-.164-.02-.295.115-.246.252l2.25,6.046-5.041.347-1.806-2.206a.329.329,0,0,0-.237-.146l-.443-.057a.1.1,0,0,0-.11.12l.391,2.436v1.5l-.391,2.436a.1.1,0,0,0,.11.12l.443-.057a.329.329,0,0,0,.237-.146l1.806-2.206,5.041.347-2.25,6.047c-.049.136.082.271.246.251l.985-.119a.736.736,0,0,0,.526-.306l3.923-5.637,4.391.3a2.517,2.517,0,0,0,1.728-.558l1.039-.843A.49.49,0,0,0,1584.577,1067.88Z" transform="translate(-1467.091 -1060.718)" fill="#dcbb87"></path><path data-name="Path 8699" d="M0,1,94,0V3L0,1Z" transform="translate(0 6)" fill="#dcbb87"></path></g></svg>